<svg width="1920" height="443" viewBox="0 0 1920 443" fill="none" xmlns="http://www.w3.org/2000/svg">
<path d="M0 16.2L45.8667 30.24C91.7333 44.46 183.467 72.54 274.773 79.56C366.293 86.4 457.173 72 548.693 55.8C640 39.6 731.733 21.6 823.04 10.8C914.56 0 1005.44 -3.60002 1096.96 12.24C1188.27 28.26 1280 63.54 1371.31 78.66C1462.83 93.6 1553.71 88.2 1645.23 71.64C1736.53 55.26 1828.27 27.54 1874.13 13.86L1920 0V444.6H1874.13C1828.27 444.6 1736.53 444.6 1645.23 444.6C1553.71 444.6 1462.83 444.6 1371.31 444.6C1280 444.6 1188.27 444.6 1096.96 444.6C1005.44 444.6 914.56 444.6 823.04 444.6C731.733 444.6 640 444.6 548.693 444.6C457.173 444.6 366.293 444.6 274.773 444.6C183.467 444.6 91.7333 444.6 45.8667 444.6H0V16.2Z" fill="#009FE6"/>
</svg>
