<svg width="20" height="20" viewBox="0 0 20 20" fill="none" xmlns="http://www.w3.org/2000/svg">
<path fill-rule="evenodd" clip-rule="evenodd" d="M4.30961 10.0003C4.30961 9.35078 4.41742 8.72797 4.61008 8.14391L1.23977 5.57031C0.582891 6.90391 0.212891 8.40672 0.212891 10.0003C0.212891 11.5927 0.582578 13.0944 1.23836 14.4272L4.6068 11.8486C4.41602 11.2672 4.30961 10.6467 4.30961 10.0003Z" fill="#FBBC05"/>
<path fill-rule="evenodd" clip-rule="evenodd" d="M10.2276 4.09094C11.6387 4.09094 12.9132 4.59094 13.9146 5.40906L16.8277 2.5C15.0526 0.954531 12.7766 0 10.2276 0C6.27008 0 2.86883 2.26313 1.24023 5.57L4.61039 8.14359C5.38695 5.78641 7.60055 4.09094 10.2276 4.09094Z" fill="#EA4335"/>
<path fill-rule="evenodd" clip-rule="evenodd" d="M10.2276 15.9081C7.6007 15.9081 5.38711 14.2127 4.61055 11.8555L1.24023 14.4286C2.86883 17.7359 6.27008 19.9991 10.2276 19.9991C12.6701 19.9991 15.0021 19.1317 16.7523 17.5067L13.5532 15.0336C12.6505 15.6022 11.5138 15.9081 10.2276 15.9081Z" fill="#717680"/>
<path fill-rule="evenodd" clip-rule="evenodd" d="M19.7874 9.99781C19.7874 9.40688 19.6963 8.77047 19.5598 8.17969H10.2285V12.0433H15.5998C15.3312 13.3606 14.6002 14.3733 13.5541 15.0323L16.7532 17.5055C18.5916 15.7992 19.7874 13.2573 19.7874 9.99781Z" fill="#4285F4"/>
</svg>
